<?xml version="1.0" standalone="no"?>
<!DOCTYPE svg PUBLIC "-//W3C//DTD SVG 20010904//EN"
 "http://www.w3.org/TR/2001/REC-SVG-20010904/DTD/svg10.dtd">
<svg version="1.0" xmlns="http://www.w3.org/2000/svg"
 width="1654.000000pt" height="2123.000000pt" viewBox="0 0 1654.000000 2123.000000"
 preserveAspectRatio="xMidYMid meet">
<metadata>
</metadata>
<g transform="translate(0.000000,2123.000000) scale(0.100000,-0.100000)"
fill="#000000" stroke="none">
<path id="hand-path" d="M9405 21214 c-360 -63 -655 -257 -825 -543 -188 -316 -597 -1423
-1043 -2819 l-93 -293 -120 -53 c-485 -213 -910 -598 -1208 -1095 -305 -508
-491 -1120 -558 -1836 -20 -213 -16 -843 6 -1070 60 -625 181 -1187 392 -1830
l75 -230 -3015 -5539 c-1659 -3046 -3016 -5549 -3016 -5562 0 -19 5 -24 25
-24 15 0 28 7 32 18 9 23 5993 11015 6002 11025 4 4 25 -39 46 -95 67 -179
154 -381 170 -397 13 -14 17 -14 31 0 14 15 10 28 -41 150 -341 809 -561 1665
-642 2494 -22 226 -25 852 -5 1050 96 957 371 1674 859 2237 239 275 566 518
873 649 61 26 1276 479 1284 479 1 0 -41 -44 -93 -97 -144 -147 -217 -293
-240 -483 -38 -303 127 -599 411 -739 135 -66 197 -81 349 -88 96 -4 145 -2
210 12 108 22 373 117 376 136 2 8 -114 325 -256 704 l-259 690 37 8 c20 5
106 6 191 3 240 -9 421 -52 625 -151 428 -208 712 -567 817 -1036 20 -90 23
-131 23 -299 0 -213 -10 -280 -67 -460 -114 -358 -385 -686 -713 -866 -111
-60 -142 -72 -885 -347 -349 -130 -643 -238 -652 -242 -22 -9 -24 -43 -4 -51
8 -3 106 29 219 70 112 42 209 76 215 76 15 0 104 -113 187 -235 77 -115 202
-364 240 -480 54 -159 76 -281 82 -445 3 -85 1 -185 -4 -222 -9 -62 -3 -98 15
-98 26 1 35 26 46 141 22 207 -17 463 -104 696 -13 36 -17 60 -11 66 12 12 3
37 -15 37 -16 0 -117 194 -106 205 4 3 -3 14 -15 23 -34 27 -133 185 -123 197
12 15 -5 39 -23 32 -10 -4 -30 13 -61 53 l-46 58 29 10 c16 6 39 8 50 5 12 -3
21 -1 21 6 0 11 53 38 108 55 16 5 22 3 22 -8 0 -21 19 -31 33 -16 9 9 8 14
-6 24 -15 12 -6 17 73 45 50 18 94 31 99 29 5 -2 25 -23 44 -47 31 -39 33 -46
20 -59 -13 -13 -13 -17 2 -31 15 -15 17 -15 29 1 12 16 15 15 38 -10 14 -15
28 -35 31 -44 4 -10 11 -18 17 -18 6 0 49 -29 94 -64 46 -35 101 -73 123 -84
22 -11 45 -28 52 -36 8 -9 20 -16 28 -16 24 0 73 -30 73 -45 0 -20 19 -28 35
-15 12 10 34 7 107 -14 51 -14 120 -30 153 -34 51 -6 60 -10 60 -27 0 -13 8
-21 24 -23 20 -3 23 0 18 17 -5 20 -1 21 68 21 200 0 428 77 596 201 74 55
213 196 255 258 15 23 29 40 31 37 2 -2 0 -30 -6 -62 -17 -91 -13 -277 8 -379
88 -428 462 -788 911 -880 128 -26 343 -17 465 19 169 51 290 122 424 251 185
178 629 831 810 1192 114 228 153 440 118 640 l-13 73 189 257 c276 375 398
531 490 625 190 194 378 310 583 359 76 18 109 20 224 16 93 -3 155 -11 200
-25 403 -122 651 -388 725 -776 21 -106 20 -324 0 -441 -20 -114 -72 -269
-125 -376 -275 -546 -1895 -3374 -2127 -3712 -148 -215 -395 -515 -603 -731
-356 -370 -793 -692 -1249 -921 -281 -140 -619 -266 -875 -324 -70 -17 -130"/>
</g>
</svg>